# xmcd
#
# Track frame offsets: 
#        150
#        18873
#        41162
#        62344
#        80695
#        103519
#        123908
#        142294
#        163512
#        180918
#        204030
#        220905
#
# Disc length: 3192 seconds
#
# Revision: 2
# Processed by: cddbd v1.5.2PL0 Copyright (c) Steve Scherf et al.
# Submitted via: ExactAudioCopy v0.95a4
#
DISCID=9a0c760c
DTITLE=Royal Southern Brotherhood - Heartsoulblood
DYEAR=2014
DGENRE=Blues
TTITLE0=World Blues
TTITLE1=Rock And Roll
TTITLE2=Groove On
TTITLE3=Here It Is
TTITLE4=Callous
TTITLE5=Ritual
TTITLE6=Shoulda Known
TTITLE7=Let's Ride
TTITLE8=Trapped
TTITLE9=She's My Lady
TTITLE10=Takes A Village
TTITLE11=Love And Peace
EXTD=Year: 2014\n\n\n                For information and merchandise p
EXTD=lease visit:   www.royalsouthernbrotherhood.com\n\n\n\n          
EXTD=                              Record Company:   www.ruf
EXTD=records.de\n\n\n\n                                       Please j
EXTD=oin The Blues Foundation:   www.blues.org
EXTT0=
EXTT1=
EXTT2=
EXTT3=
EXTT4=
EXTT5=
EXTT6=
EXTT7=
EXTT8=
EXTT9=
EXTT10=
EXTT11=
PLAYORDER=
